<svg width="215" height="81" viewBox="0 0 215 81" fill="none" xmlns="http://www.w3.org/2000/svg">
<path d="M28.0706 -6.25524e-05L19.8574 1.44689V2.99717V10.2318V16.2262H8.21324C8.21324 13.8491 8.21324 11.2653 8.21324 8.88823V0.103327L0 1.55021V2.99717V10.3351V36.5865H8.21324V22.2206H19.8574V36.5865H28.0706V8.78484V2.99717V-6.25524e-05ZM89.722 0.620086L81.8206 1.96365V36.5865H89.722V25.9413C96.3757 36.6899 89.8259 26.148 96.2718 36.5865H104.277L96.1678 24.1843L103.757 11.6787H96.0638L89.722 22.0139V17.4664V0.620086ZM156.364 0.620086L148.462 1.96365V30.4887C148.462 34.0027 150.438 36.7932 155.012 36.7932C157.923 36.7932 160.522 35.9664 161.458 35.553L160.73 30.5921C160.002 30.6955 158.963 30.9022 158.339 30.9022C156.883 30.9022 156.364 30.3854 156.364 28.7318V0.620086ZM200.445 0.620086L192.543 1.96365V35.4497C193.063 35.6564 198.366 36.8965 202.524 36.8965C210.01 36.8965 215 31.3155 215 23.7709C215 16.3295 211.881 11.3686 205.643 11.3686C203.356 11.3686 201.692 12.2988 200.445 13.8491V0.620086ZM135.571 2.48041C125.382 2.48041 120.496 9.92171 120.496 20.1535C120.496 30.7988 125.07 36.7932 135.259 36.7932C139.313 36.7932 142.536 36.0697 144.512 35.1396L142.64 29.5586C140.769 30.2821 138.482 30.9022 136.194 30.9022C130.892 30.9022 129.333 26.2513 129.333 19.4301C129.333 12.4022 131.204 8.16476 135.467 8.16476C137.234 8.16476 138.897 8.78485 140.769 11.0586L145.239 6.51115C143.368 4.54747 140.873 2.48041 135.571 2.48041ZM71.4241 11.162C64.4584 11.162 59.2602 15.8128 59.2602 24.8044C59.2602 32.1423 62.691 36.9999 70.8003 36.9999C75.2708 36.9999 78.1818 35.3463 78.2858 35.3463L76.8303 30.0753C76.7263 30.0753 74.2311 31.1089 72.6717 31.1089C70.4884 31.1089 67.6813 30.1787 67.6813 23.9776C67.6813 17.6731 70.2805 17.053 71.9439 17.053C73.2954 17.053 74.0232 17.7765 74.8549 18.7067L78.7016 14.6759C77.1421 12.6089 74.751 11.162 71.4241 11.162ZM44.705 11.2653C37.2195 11.2653 32.1252 16.8463 32.1252 24.4943C32.1252 31.9357 35.2442 36.7932 41.69 36.7932C45.3288 36.7932 47.4081 35.0362 48.5517 31.9357C49.1755 35.2429 50.9429 36.8965 50.9429 36.8965L57.2848 34.9329C57.2848 34.9329 54.4777 32.4525 54.4777 24.5977V12.7123C54.4777 12.8156 48.8636 11.2653 44.705 11.2653ZM164.473 11.6787V28.215C164.473 33.486 166.448 36.7932 171.647 36.7932C175.181 36.7932 178.404 35.4497 180.172 32.3491C180.899 35.3463 182.459 36.8965 182.459 36.8965L188.801 34.9329C188.801 34.9329 185.994 32.4525 185.994 24.5977V11.6787H178.092V24.081C178.092 28.4217 176.117 31.1089 174.246 31.1089C172.686 31.1089 172.27 29.5586 172.27 27.1815V11.6787H164.473ZM44.705 17.053C45.3288 17.053 46.2645 17.2597 46.7843 17.4664V23.2541C46.7843 27.3882 45.1209 31.1089 43.1456 31.1089C40.7544 31.1089 40.6504 27.6982 40.6504 23.9776C40.5464 19.9468 41.4821 17.053 44.705 17.053ZM204.084 17.053C206.475 17.053 206.579 20.4636 206.579 24.1843C206.579 28.1117 205.747 31.1089 202.42 31.1089C201.796 31.1089 200.757 30.9022 200.341 30.7988V25.5278C200.445 21.0837 201.9 17.053 204.084 17.053Z" fill="#EC3750"/>
<path d="M32.614 56.048C35.386 54.662 36.94 52.016 36.94 48.95C36.94 44.96 34.21 42.65 29.842 42.65H15.898V71H28.078C34.378 71 38.284 68.186 38.284 62.936C38.284 58.904 36.016 56.804 32.614 56.048ZM30.136 50.672C30.136 53.234 28.288 54.41 26.314 54.41H23.416V47.732H27.448C29.086 47.732 30.136 48.74 30.136 50.672ZM26.818 65.918H23.416V58.778H27.574C29.968 58.778 31.312 59.912 31.312 62.012C31.312 64.406 29.674 65.918 26.818 65.918ZM50.2852 69.698V42.23L42.5992 42.65V69.656C42.5992 71.294 42.3052 73.31 40.3732 73.94C39.3232 74.57 37.6852 74.78 35.7952 74.696V80.24C36.7612 80.45 38.0212 80.66 39.4912 80.66C46.1692 80.66 50.2852 76.628 50.2852 69.698ZM88.4898 69.908L87.3558 64.364C86.3058 64.91 84.5838 65.414 82.3578 65.414C77.2758 65.414 74.6718 62.978 74.6718 57.056C74.6718 50.966 77.4858 48.236 81.7278 48.236C83.5338 48.236 85.6758 48.866 87.1878 49.706L88.4898 43.7C86.4317 42.734 83.6598 42.23 81.0558 42.23C71.9418 42.23 66.6498 48.362 66.6498 57.434C66.6498 66.296 71.7738 71.42 80.5098 71.42C83.3238 71.42 86.3898 70.874 88.4898 69.908ZM102.36 66.422C99.7139 66.422 98.0339 65.33 97.4459 62.726C98.4539 62.936 99.5459 63.062 100.806 63.062C106.602 63.062 110.046 60.5 110.046 56.258C110.046 51.974 106.602 49.58 101.646 49.58C94.7999 49.58 90.1379 54.284 90.1379 61.172C90.1379 67.556 94.0859 71.42 100.68 71.42C103.872 71.42 107.358 70.538 109.08 69.488L108.408 64.826C106.56 65.792 104.334 66.422 102.36 66.422ZM100.932 54.032C102.36 54.032 103.326 54.872 103.326 56.636C103.326 58.736 101.856 59.87 99.4199 59.87C98.7899 59.87 97.9079 59.786 97.1939 59.66C97.3199 55.796 98.8319 54.032 100.932 54.032ZM134.373 62.348V56.258C134.373 51.764 131.811 49.58 128.073 49.58C125.427 49.58 122.865 50.756 121.059 53.234C120.303 51.134 118.287 49.664 114.507 49.58L112.491 54.662C114.255 55.25 114.381 56.594 114.381 58.022V71H121.605V64.784C121.605 57.434 123.285 55.25 125.217 55.25C126.435 55.25 127.149 56.09 127.149 57.938V64.406C127.149 67.472 128.283 71.126 132.735 71.378C133.407 71.42 134.205 71.336 134.751 71.084L136.389 66.17C134.751 65.582 134.373 64.406 134.373 62.348ZM153.986 64.952C153.104 65.288 151.844 65.75 150.668 65.75C148.61 65.75 148.316 64.196 148.316 62.852V55.334H153.818L154.868 50H148.316V44.666L143.78 44.75L142.058 50H138.53V55.334H141.092V63.062C141.092 65.162 141.092 71.42 148.61 71.42C151.172 71.42 153.566 70.706 155.288 69.908L153.986 64.952ZM171.445 49.58C168.715 49.58 166.741 51.218 165.691 54.746L165.649 54.284C165.229 51.68 163.255 49.664 158.845 49.58L156.829 54.662C158.593 55.25 158.719 56.594 158.719 58.022V71H165.943V66.716C165.943 58.148 168.043 56.384 170.647 56.384C171.529 56.384 172.327 56.594 172.915 56.804L173.797 50C173.041 49.748 172.327 49.58 171.445 49.58ZM197.22 59.702C197.22 53.192 193.272 49.58 186.804 49.58C179.538 49.58 174.876 54.116 174.876 61.214C174.876 67.808 178.908 71.42 185.334 71.42C192.558 71.42 197.22 66.758 197.22 59.702ZM189.702 60.08C189.702 64.322 188.148 66.422 185.712 66.422C183.822 66.422 182.394 64.994 182.394 60.836C182.394 56.678 183.906 54.578 186.342 54.578C188.232 54.578 189.702 55.964 189.702 60.08Z" fill="#EC3750"/>
</svg>