<svg width="230" height="86,36" viewBox="0 0 506 190" fill="none" xmlns="http://www.w3.org/2000/svg">
<path d="M66.0638 -0.000147083L46.7341 3.40214V7.04739V24.0585V38.1535H19.3298C19.3298 32.5641 19.3298 26.4887 19.3298 20.8994V0.242958L0 3.6451V7.04739V24.3015V86.0277H19.3298V52.2484H46.7341V86.0277H66.0638V20.6563V7.04739V-0.000147083ZM211.16 1.45804L192.564 4.61722V86.0277H211.16V60.9971C226.819 86.2708 211.404 61.4831 226.574 86.0277H245.415L226.33 56.8658L244.191 27.4608H226.085L211.16 51.7625V41.0697V1.45804ZM368 1.45804L349.404 4.61722V71.6897C349.404 79.9523 354.053 86.5138 364.819 86.5138C371.67 86.5138 377.787 84.5696 379.989 83.5976L378.277 71.9328C376.564 72.1758 374.117 72.6618 372.649 72.6618C369.223 72.6618 368 71.4468 368 67.5585V1.45804ZM471.745 1.45804L453.149 4.61722V83.3546C454.372 83.8406 466.851 86.7567 476.638 86.7567C494.255 86.7567 506 73.6338 506 55.8936C506 38.3964 498.66 26.7317 483.979 26.7317C478.596 26.7317 474.681 28.9189 471.745 32.5641V1.45804ZM319.064 5.83231C295.085 5.83231 283.585 23.3294 283.585 47.3881C283.585 72.4187 294.351 86.5138 318.33 86.5138C327.872 86.5138 335.457 84.8126 340.106 82.6254L335.702 69.5026C331.298 71.2038 325.915 72.6618 320.532 72.6618C308.053 72.6618 304.383 61.7261 304.383 45.6871C304.383 29.1619 308.787 19.1982 318.819 19.1982C322.979 19.1982 326.894 20.6563 331.298 26.0026L341.819 15.31C337.415 10.6927 331.543 5.83231 319.064 5.83231ZM168.096 26.2457C151.702 26.2457 139.468 37.1814 139.468 58.3238C139.468 75.578 147.543 86.9999 166.628 86.9999C177.149 86.9999 184 83.1115 184.245 83.1115L180.819 70.7177C180.574 70.7177 174.702 73.1479 171.032 73.1479C165.894 73.1479 159.287 70.9607 159.287 56.3797C159.287 41.5557 165.404 40.0976 169.319 40.0976C172.5 40.0976 174.213 41.7988 176.17 43.9859L185.223 34.5082C181.553 29.6479 175.925 26.2457 168.096 26.2457ZM105.213 26.4887C87.5957 26.4887 75.6064 39.6116 75.6064 57.5948C75.6064 75.092 82.9468 86.5138 98.117 86.5138C106.681 86.5138 111.574 82.3825 114.266 75.092C115.734 82.8685 119.894 86.7567 119.894 86.7567L134.819 82.1395C134.819 82.1395 128.213 76.3071 128.213 57.8379V29.891C128.213 30.134 115 26.4887 105.213 26.4887ZM387.085 27.4608V66.3435C387.085 78.7373 391.734 86.5138 403.968 86.5138C412.287 86.5138 419.872 83.3546 424.032 76.0641C425.745 83.1116 429.415 86.7567 429.415 86.7567L444.34 82.1395C444.34 82.1395 437.734 76.3071 437.734 57.8379V27.4608H419.138V56.6228C419.138 66.8295 414.489 73.1479 410.085 73.1479C406.415 73.1479 405.436 69.5027 405.436 63.9133V27.4608H387.085ZM105.213 40.0976C106.681 40.0976 108.883 40.5837 110.106 41.0697V54.6786C110.106 64.3992 106.191 73.1479 101.543 73.1479C95.9149 73.1479 95.6702 65.1283 95.6702 56.3797C95.4256 46.9021 97.6277 40.0976 105.213 40.0976ZM480.309 40.0976C485.936 40.0976 486.181 48.1172 486.181 56.8658C486.181 66.1004 484.223 73.1479 476.394 73.1479C474.926 73.1479 472.479 72.6619 471.5 72.4189V60.0249C471.745 49.5752 475.17 40.0976 480.309 40.0976Z" fill="#EC3750"/>
<path d="M153.716 139.264C160.712 135.766 164.634 129.088 164.634 121.35C164.634 111.28 157.744 105.45 146.72 105.45H111.528V177H142.268C158.168 177 168.026 169.898 168.026 156.648C168.026 146.472 162.302 141.172 153.716 139.264ZM147.462 125.696C147.462 132.162 142.798 135.13 137.816 135.13H130.502V118.276H140.678C144.812 118.276 147.462 120.82 147.462 125.696ZM139.088 164.174H130.502V146.154H140.996C147.038 146.154 150.43 149.016 150.43 154.316C150.43 160.358 146.296 164.174 139.088 164.174ZM309.468 122.94C295.794 122.94 287.526 129.3 287.526 139.158C287.526 149.228 296.006 153.044 302.048 155.482C307.03 157.496 312.012 159.192 312.012 162.69C312.012 164.81 310.528 166.506 306.606 166.506C302.684 166.506 296.218 164.598 289.434 160.994L286.678 174.562C292.72 176.788 300.352 178.06 306.394 178.06C321.658 178.06 330.138 171.064 330.138 161.1C330.138 150.818 321.128 147.532 314.556 144.882C309.362 142.762 305.652 141.066 305.652 138.098C305.652 136.084 307.242 134.494 310.74 134.494C314.344 134.494 320.068 136.19 325.05 139.264L327.806 125.802C322.718 124.212 315.51 122.94 309.468 122.94Z" fill="#0056A6"/>
<path d="M211.565 122.94C204.675 122.94 199.693 127.074 197.043 135.978L196.937 134.812C195.877 128.24 190.895 123.152 179.765 122.94L174.677 135.766C179.129 137.25 179.447 140.642 179.447 144.246V177H197.679V166.188C197.679 144.564 202.979 140.112 209.551 140.112C211.777 140.112 213.791 140.642 215.275 141.172L217.501 124C215.593 123.364 213.791 122.94 211.565 122.94ZM349.729 116.792C355.877 116.792 360.011 112.552 360.011 107.146C360.011 101.74 355.877 97.5 349.729 97.5C343.687 97.5 339.447 101.634 339.447 107.146C339.447 112.552 343.475 116.792 349.729 116.792ZM340.613 124V160.358C340.613 168.096 343.581 177.318 354.711 177.954C356.513 178.06 358.421 177.848 359.905 177.212L363.933 164.81C359.905 163.326 358.845 160.358 358.845 155.164V122.94L340.613 124Z" fill="#FEDF00"/>
<path d="M275.624 155.164V122.94L266.084 124.318C262.904 123.47 259.088 122.94 254.636 122.94C234.814 122.94 221.776 134.388 221.776 153.68C221.776 168.944 230.044 178.06 242.552 178.06C250.184 178.06 255.696 174.456 259.512 168.838C261.102 173.714 264.494 177.53 271.49 177.954C273.292 178.06 275.2 177.848 276.684 177.212L280.712 164.81C276.684 163.326 275.624 160.358 275.624 155.164ZM247.852 165.552C243.294 165.552 240.75 160.994 240.75 152.514C240.75 140.96 245.414 135.448 252.728 135.448C254.212 135.448 255.908 135.66 257.392 136.084V136.508C257.392 158.874 253.576 165.552 247.852 165.552ZM374.463 100.68V160.358C374.463 168.096 377.431 177.318 388.561 177.954C390.363 178.06 392.271 177.848 393.755 177.212L397.783 164.81C393.755 163.326 392.695 160.358 392.695 155.164V99.62L374.463 100.68Z" fill="#009B3A"/>
</svg>
